<svg width="107" height="18" viewBox="0 0 107 18" fill="none" xmlns="http://www.w3.org/2000/svg">
<path d="M3.83484 9.00004L1.91659 10.9166L0 9.00004L1.91659 7.08345L3.83484 9.00004ZM8.48539 4.34617L11.7698 7.63223L13.6864 5.71564L8.48539 0.514648L3.2844 5.71564L5.20099 7.63223L8.48539 4.34617ZM15.0558 7.08345L13.1393 9.00004L15.0558 10.9166L16.9708 9.00004L15.0558 7.08345ZM8.48539 13.6539L5.20099 10.3695L3.2844 12.2844L8.48539 17.4854L13.6864 12.2844L11.7698 10.3695L8.48539 13.6539ZM8.48539 10.9166L10.402 9.00004L8.48539 7.08345L6.5688 9.00004L8.48539 10.9166ZM28.7124 11.1007V11.0741C28.7124 9.82404 28.0492 9.19899 26.9715 8.78782C27.6347 8.41478 28.1951 7.82952 28.1951 6.78004V6.75351C28.1951 5.2912 27.0246 4.34617 25.1229 4.34617H20.804V13.6539H25.2307C27.3313 13.6539 28.714 12.8034 28.714 11.1007H28.7124ZM26.1608 7.12158C26.1608 7.81294 25.5888 8.1064 24.6836 8.1064H22.7985V6.14173H24.8195C25.6833 6.14173 26.1625 6.48658 26.1625 7.09837L26.1608 7.12158ZM26.6781 10.8453C26.6781 11.5367 26.1343 11.855 25.229 11.855H22.7985V9.81077H25.1644C26.2155 9.81077 26.6797 10.1971 26.6797 10.8221L26.6781 10.8453ZM33.0148 13.6539V4.34617H30.9606V13.6539H33.0148ZM44.0219 13.6539V4.34617H41.9942V10.0777L37.6321 4.34617H35.7454V13.6539H37.7664V7.73668L42.2727 13.6539H44.0219ZM55.3639 13.6539L51.3683 4.27985H49.4799L45.4908 13.6539H47.5782L48.4337 11.5665H52.368L53.2202 13.6539H55.3639ZM51.6402 9.75772H49.1615L50.3984 6.74025L51.6402 9.75772ZM65.1243 13.6539V4.34617H63.0966V10.0777L58.7345 4.34617H56.8461V13.6539H58.8672V7.73668L63.3751 13.6539H65.1243ZM75.6937 12.1518L74.3906 10.8354C73.6594 11.4986 73.0078 11.9247 71.9451 11.9247C70.3501 11.9247 69.2459 10.5983 69.2459 9.00004V8.97351C69.2459 7.37856 70.3767 6.07541 71.9451 6.07541C72.8752 6.07541 73.603 6.47332 74.3242 7.12489L75.6241 5.62279C74.7603 4.77226 73.7091 4.18701 71.955 4.18701C69.0967 4.18701 67.1022 6.35395 67.1022 8.99506V9.02159C67.1022 11.6942 69.1365 13.8081 71.8755 13.8081C73.666 13.8131 74.7304 13.1748 75.6871 12.1518H75.6937ZM84.4294 13.6539V11.8302H79.371V9.87212H83.7596V8.04837H79.371V6.16826H84.3565V4.34451H77.3367V13.6522L84.4294 13.6539Z" fill="#F0B90B"/>
<path fill-rule="evenodd" clip-rule="evenodd" d="M86.8716 13.6555V12.2578H88.0968V13.6555H86.8716Z" fill="#F0B90B"/>
<path fill-rule="evenodd" clip-rule="evenodd" d="M97.6449 9.67806C97.6449 12.3921 96.0881 13.8014 93.7603 13.8014C91.4326 13.8014 89.8824 12.3921 89.8824 9.75764V4.34277H90.9335V9.69132C90.9335 11.6991 91.9963 12.8298 93.7802 12.8298C95.4962 12.8298 96.5871 11.7936 96.5871 9.75764V4.34277H97.6383L97.6449 9.67806Z" fill="#F0B90B"/>
<path fill-rule="evenodd" clip-rule="evenodd" d="M103.162 8.49254C105.238 8.94516 106.196 9.7045 106.196 11.1453C106.196 12.7551 104.87 13.798 103.016 13.798C101.539 13.798 100.328 13.3006 99.2026 12.3058L99.8625 11.5299C100.834 12.4086 101.764 12.8463 103.056 12.8463C104.306 12.843 105.135 12.1931 105.135 11.248C105.135 10.3693 104.669 9.87692 102.713 9.46409C100.57 8.99821 99.5856 8.30353 99.5856 6.76329C99.5856 5.27114 100.877 4.21005 102.646 4.21005C103.841 4.17538 105.006 4.58273 105.919 5.35404L105.301 6.16477C104.435 5.46015 103.571 5.15343 102.613 5.15343C101.403 5.15343 100.623 5.81661 100.623 6.67045C100.633 7.56243 101.113 8.04821 103.162 8.49254Z" fill="#F0B90B"/>
</svg>
